<svg width="16" height="10" viewBox="0 0 16 10" fill="none" xmlns="http://www.w3.org/2000/svg">
<path d="M15.5391 1.12109C15.6094 1.22656 15.6445 1.33203 15.6445 1.4375C15.6445 1.57812 15.6094 1.64844 15.5391 1.71875L8.19141 9.10156C8.08594 9.17188 7.98047 9.20703 7.875 9.20703C7.73438 9.20703 7.66406 9.17188 7.59375 9.10156L0.210938 1.71875C0.140625 1.64844 0.105469 1.57812 0.105469 1.4375C0.105469 1.33203 0.140625 1.22656 0.210938 1.12109L0.914062 0.417969C0.984375 0.347656 1.05469 0.3125 1.19531 0.3125C1.30078 0.3125 1.40625 0.347656 1.51172 0.417969L7.875 6.78125L14.2383 0.417969C14.3086 0.347656 14.4141 0.3125 14.5547 0.3125C14.6602 0.3125 14.7656 0.347656 14.8359 0.417969L15.5391 1.12109Z" fill="#479ECE"/>
</svg>
