<svg width="13" height="8" viewBox="0 0 13 8" fill="none" xmlns="http://www.w3.org/2000/svg">
<path d="M12.0859 1.31641C12.1406 1.39844 12.168 1.48047 12.168 1.5625C12.168 1.67188 12.1406 1.72656 12.0859 1.78125L6.37109 7.52344C6.28906 7.57812 6.20703 7.60547 6.125 7.60547C6.01562 7.60547 5.96094 7.57812 5.90625 7.52344L0.164062 1.78125C0.109375 1.72656 0.0820312 1.67188 0.0820312 1.5625C0.0820312 1.48047 0.109375 1.39844 0.164062 1.31641L0.710938 0.769531C0.765625 0.714844 0.820312 0.6875 0.929688 0.6875C1.01172 0.6875 1.09375 0.714844 1.17578 0.769531L6.125 5.71875L11.0742 0.769531C11.1289 0.714844 11.2109 0.6875 11.3203 0.6875C11.4023 0.6875 11.4844 0.714844 11.5391 0.769531L12.0859 1.31641Z" fill="#BBBBBB"/>
</svg>
